<svg id="footsteps-silhouette-variant" xmlns="http://www.w3.org/2000/svg" width="44.841" height="50.203" viewBox="0 0 44.841 50.203">
  <g id="footsteps-silhouette-variant-2" data-name="footsteps-silhouette-variant" transform="translate(-62.055 49.559) rotate(-30)">
    <path id="パス_12" data-name="パス 12" d="M88.417,31.594c2.052.778,3.864,1.273,6.467,2.159C93.884,47.743,81.935,42.187,88.417,31.594ZM99.086,18.743c-.135-4.2-.8-9.711-6.127-8.847-2.5.721-4.339,3.755-5.207,8.99a27.77,27.77,0,0,0,.363,9.34c.513,1.707.339,1.6.89,1.926,2.134.532,4.247,1.121,6.4,1.722C97.589,30.164,99.384,21.093,99.086,18.743ZM82.658,18.42a27.788,27.788,0,0,0,.362-9.34C82.154,3.845,80.309.811,77.813.09c-5.323-.863-5.992,4.647-6.127,8.848-.3,2.35,1.5,11.422,3.683,13.13,2.151-.6,4.263-1.189,6.4-1.722C82.319,20.022,82.145,20.127,82.658,18.42Zm-6.769,5.529c1,13.99,12.949,8.434,6.467-2.159C80.3,22.568,78.492,23.063,75.889,23.949Z" transform="translate(0 0)" fill="#fff"/>
  </g>
</svg>
